<mxfile host="app.diagrams.net" modified="2024-04-27T06:52:33.288Z" agent="Mozilla/5.0 (Windows NT 10.0; Win64; x64) AppleWebKit/537.36 (KHTML, like Gecko) Chrome/124.0.0.0 Safari/537.36" etag="ERdlS4fyI8PiNJSGf79e" version="24.3.0" type="github">
  <diagram name="Page-1" id="42789a77-a242-8287-6e28-9cd8cfd52e62">
    <mxGraphModel dx="1195" dy="588" grid="1" gridSize="10" guides="1" tooltips="1" connect="1" arrows="1" fold="1" page="1" pageScale="1" pageWidth="1100" pageHeight="850" background="none" math="0" shadow="0">
      <root>
        <mxCell id="0" />
        <mxCell id="1" parent="0" />
        <mxCell id="zjSSMuX_inl-teEdnPAB-8" style="edgeStyle=orthogonalEdgeStyle;rounded=0;orthogonalLoop=1;jettySize=auto;html=1;exitX=1;exitY=0.5;exitDx=0;exitDy=0;entryX=0;entryY=0.5;entryDx=0;entryDy=0;" edge="1" parent="1" source="zjSSMuX_inl-teEdnPAB-1" target="zjSSMuX_inl-teEdnPAB-4">
          <mxGeometry relative="1" as="geometry">
            <Array as="points">
              <mxPoint x="720" y="300" />
              <mxPoint x="720" y="270" />
            </Array>
          </mxGeometry>
        </mxCell>
        <mxCell id="zjSSMuX_inl-teEdnPAB-9" style="edgeStyle=orthogonalEdgeStyle;rounded=0;orthogonalLoop=1;jettySize=auto;html=1;exitX=1;exitY=0.5;exitDx=0;exitDy=0;" edge="1" parent="1" source="zjSSMuX_inl-teEdnPAB-1" target="zjSSMuX_inl-teEdnPAB-5">
          <mxGeometry relative="1" as="geometry">
            <Array as="points">
              <mxPoint x="720" y="300" />
              <mxPoint x="720" y="330" />
            </Array>
          </mxGeometry>
        </mxCell>
        <mxCell id="zjSSMuX_inl-teEdnPAB-17" value="下达&lt;div&gt;控制信号&lt;/div&gt;" style="edgeLabel;html=1;align=center;verticalAlign=middle;resizable=0;points=[];labelBackgroundColor=none;" vertex="1" connectable="0" parent="zjSSMuX_inl-teEdnPAB-9">
          <mxGeometry x="-0.4286" y="1" relative="1" as="geometry">
            <mxPoint y="1" as="offset" />
          </mxGeometry>
        </mxCell>
        <mxCell id="zjSSMuX_inl-teEdnPAB-1" value="&lt;font style=&quot;font-size: 20px;&quot; face=&quot;宋体&quot;&gt;主控板&lt;/font&gt;" style="rounded=0;whiteSpace=wrap;html=1;" vertex="1" parent="1">
          <mxGeometry x="480" y="270" width="160" height="60" as="geometry" />
        </mxCell>
        <mxCell id="zjSSMuX_inl-teEdnPAB-13" style="edgeStyle=orthogonalEdgeStyle;rounded=0;orthogonalLoop=1;jettySize=auto;html=1;exitX=1;exitY=0.5;exitDx=0;exitDy=0;entryX=0;entryY=0.5;entryDx=0;entryDy=0;" edge="1" parent="1" source="zjSSMuX_inl-teEdnPAB-2" target="zjSSMuX_inl-teEdnPAB-1">
          <mxGeometry relative="1" as="geometry">
            <Array as="points">
              <mxPoint x="400" y="270" />
              <mxPoint x="400" y="300" />
            </Array>
          </mxGeometry>
        </mxCell>
        <mxCell id="zjSSMuX_inl-teEdnPAB-2" value="&lt;font style=&quot;font-size: 18px;&quot; face=&quot;宋体&quot;&gt;温湿度传感器&lt;/font&gt;" style="rounded=0;whiteSpace=wrap;html=1;" vertex="1" parent="1">
          <mxGeometry x="230" y="250" width="140" height="40" as="geometry" />
        </mxCell>
        <mxCell id="zjSSMuX_inl-teEdnPAB-14" style="edgeStyle=orthogonalEdgeStyle;rounded=0;orthogonalLoop=1;jettySize=auto;html=1;exitX=1;exitY=0.5;exitDx=0;exitDy=0;entryX=0;entryY=0.5;entryDx=0;entryDy=0;" edge="1" parent="1" source="zjSSMuX_inl-teEdnPAB-3" target="zjSSMuX_inl-teEdnPAB-1">
          <mxGeometry relative="1" as="geometry">
            <Array as="points">
              <mxPoint x="400" y="330" />
              <mxPoint x="400" y="300" />
            </Array>
          </mxGeometry>
        </mxCell>
        <mxCell id="zjSSMuX_inl-teEdnPAB-15" value="上传数据" style="edgeLabel;html=1;align=center;verticalAlign=middle;resizable=0;points=[];" vertex="1" connectable="0" parent="zjSSMuX_inl-teEdnPAB-14">
          <mxGeometry x="0.3738" y="1" relative="1" as="geometry">
            <mxPoint y="-7" as="offset" />
          </mxGeometry>
        </mxCell>
        <mxCell id="zjSSMuX_inl-teEdnPAB-3" value="&lt;font style=&quot;font-size: 18px;&quot; face=&quot;宋体&quot;&gt;光照强度传感器&lt;/font&gt;" style="rounded=0;whiteSpace=wrap;html=1;" vertex="1" parent="1">
          <mxGeometry x="230" y="310" width="140" height="40" as="geometry" />
        </mxCell>
        <mxCell id="zjSSMuX_inl-teEdnPAB-4" value="&lt;font face=&quot;Times New Roman&quot; style=&quot;font-size: 18px;&quot;&gt;LED&lt;/font&gt;" style="rounded=0;whiteSpace=wrap;html=1;" vertex="1" parent="1">
          <mxGeometry x="750" y="250" width="140" height="40" as="geometry" />
        </mxCell>
        <mxCell id="zjSSMuX_inl-teEdnPAB-5" value="&lt;font style=&quot;font-size: 18px;&quot; face=&quot;宋体&quot;&gt;直流电机&lt;/font&gt;" style="rounded=0;whiteSpace=wrap;html=1;" vertex="1" parent="1">
          <mxGeometry x="750" y="310" width="140" height="40" as="geometry" />
        </mxCell>
        <mxCell id="zjSSMuX_inl-teEdnPAB-6" value="&lt;font face=&quot;Times New Roman&quot; style=&quot;font-size: 18px;&quot;&gt;LCD&lt;/font&gt;&lt;font style=&quot;font-size: 18px;&quot; face=&quot;宋体&quot;&gt;触摸屏&lt;/font&gt;" style="rounded=0;whiteSpace=wrap;html=1;" vertex="1" parent="1">
          <mxGeometry x="490" y="180" width="140" height="40" as="geometry" />
        </mxCell>
        <mxCell id="zjSSMuX_inl-teEdnPAB-21" style="edgeStyle=orthogonalEdgeStyle;rounded=0;orthogonalLoop=1;jettySize=auto;html=1;exitX=0.5;exitY=0;exitDx=0;exitDy=0;entryX=0.5;entryY=1;entryDx=0;entryDy=0;" edge="1" parent="1" source="zjSSMuX_inl-teEdnPAB-7" target="zjSSMuX_inl-teEdnPAB-1">
          <mxGeometry relative="1" as="geometry" />
        </mxCell>
        <mxCell id="zjSSMuX_inl-teEdnPAB-22" value="装载" style="edgeLabel;html=1;align=center;verticalAlign=middle;resizable=0;points=[];" vertex="1" connectable="0" parent="zjSSMuX_inl-teEdnPAB-21">
          <mxGeometry x="-0.0133" y="-2" relative="1" as="geometry">
            <mxPoint x="10" as="offset" />
          </mxGeometry>
        </mxCell>
        <mxCell id="zjSSMuX_inl-teEdnPAB-7" value="&lt;font face=&quot;Times New Roman&quot; style=&quot;font-size: 17px;&quot;&gt;OpenHarmony&lt;/font&gt;&lt;font style=&quot;font-size: 18px;&quot; face=&quot;宋体&quot;&gt;系统&lt;/font&gt;" style="rounded=0;whiteSpace=wrap;html=1;" vertex="1" parent="1">
          <mxGeometry x="490" y="380" width="140" height="40" as="geometry" />
        </mxCell>
        <mxCell id="zjSSMuX_inl-teEdnPAB-18" value="" style="endArrow=classic;startArrow=classic;html=1;rounded=0;exitX=0.5;exitY=0;exitDx=0;exitDy=0;entryX=0.5;entryY=1;entryDx=0;entryDy=0;" edge="1" parent="1" source="zjSSMuX_inl-teEdnPAB-1" target="zjSSMuX_inl-teEdnPAB-6">
          <mxGeometry width="50" height="50" relative="1" as="geometry">
            <mxPoint x="690" y="220" as="sourcePoint" />
            <mxPoint x="740" y="170" as="targetPoint" />
          </mxGeometry>
        </mxCell>
        <mxCell id="zjSSMuX_inl-teEdnPAB-20" value="交互" style="edgeLabel;html=1;align=center;verticalAlign=middle;resizable=0;points=[];" vertex="1" connectable="0" parent="zjSSMuX_inl-teEdnPAB-18">
          <mxGeometry x="0.0041" relative="1" as="geometry">
            <mxPoint x="12" as="offset" />
          </mxGeometry>
        </mxCell>
      </root>
    </mxGraphModel>
  </diagram>
</mxfile>
